<svg width="22" height="22" viewBox="0 0 22 22" fill="none" xmlns="http://www.w3.org/2000/svg">
<g filter="url(#filter0_d)">
<path d="M13.1467 7.74818C13.4618 8.06275 14 7.83958 14 7.39433V3C14 1.34 12.66 0 11 0C9.62756 0 8.48545 0.921305 8.13283 2.17643C8.05031 2.47017 8.16586 2.77565 8.38179 2.99122L13.1467 7.74818ZM17.9424 9.84742C18.0058 9.38227 17.6194 9 17.15 9C16.6806 9 16.307 9.38313 16.2288 9.84602C16.2139 9.93388 16.1969 10.0208 16.1778 10.1069C16.1043 10.438 16.1815 10.7915 16.4214 11.0314C16.8536 11.4636 17.5828 11.3418 17.7513 10.7542C17.8358 10.4593 17.9003 10.1565 17.9424 9.84742ZM4.115 1.565C3.72564 1.17564 3.09436 1.17564 2.705 1.565C2.31564 1.95436 2.31564 2.58564 2.705 2.975L7.70711 7.97711C7.89464 8.16464 8 8.419 8 8.68421V9C8 10.66 9.34 12 11 12C11.0329 12 11.0655 11.9994 11.0976 11.9982C11.4447 11.9852 11.7996 12.0696 12.0451 12.3151L12.2988 12.5688C12.79 13.06 12.6346 13.8889 11.9512 14.0133C11.6398 14.0701 11.3215 14.1 11 14.1C8.5077 14.1 6.19479 12.3876 5.76957 9.84644C5.69209 9.38343 5.31944 9 4.85 9C4.38056 9 3.99411 9.38255 4.05657 9.84782C4.4235 12.5813 6.53371 14.8089 9.15767 15.5402C9.63471 15.6732 10 16.0865 10 16.5817V18C10 18.5523 10.4477 19 11 19C11.5523 19 12 18.5523 12 18V16.5873C12 16.0896 12.3687 15.6751 12.8481 15.5414C13.1982 15.4437 13.5387 15.3186 13.8678 15.1701C14.2803 14.9839 14.7724 15.0424 15.0924 15.3624L18.045 18.315C18.4344 18.7044 19.0656 18.7044 19.455 18.315C19.8444 17.9256 19.8444 17.2944 19.455 16.905L4.115 1.565Z" fill="#C6C6C6"/>
</g>
<defs>
<filter id="filter0_d" x="0.412994" y="0" width="21.334" height="23" filterUnits="userSpaceOnUse" color-interpolation-filters="sRGB">
<feFlood flood-opacity="0" result="BackgroundImageFix"/>
<feColorMatrix in="SourceAlpha" type="matrix" values="0 0 0 0 0 0 0 0 0 0 0 0 0 0 0 0 0 0 127 0"/>
<feOffset dy="2"/>
<feGaussianBlur stdDeviation="1"/>
<feColorMatrix type="matrix" values="0 0 0 0 0.929167 0 0 0 0 0.929167 0 0 0 0 0.929167 0 0 0 0.4 0"/>
<feBlend mode="normal" in2="BackgroundImageFix" result="effect1_dropShadow"/>
<feBlend mode="normal" in="SourceGraphic" in2="effect1_dropShadow" result="shape"/>
</filter>
</defs>
</svg>
